<mxfile host="app.diagrams.net" modified="2020-09-15T05:42:43.728Z" agent="5.0 (X11; Linux x86_64) AppleWebKit/537.36 (KHTML, like Gecko) Chrome/84.0.4147.125 Safari/537.36" etag="iuHJiF5Ca14fZTxCAsNN" version="13.6.9" type="github">
  <diagram id="C5RBs43oDa-KdzZeNtuy" name="Page-1">
    <mxGraphModel dx="1422" dy="736" grid="1" gridSize="10" guides="1" tooltips="1" connect="1" arrows="1" fold="1" page="1" pageScale="1" pageWidth="1390" pageHeight="980" math="0" shadow="0">
      <root>
        <mxCell id="WIyWlLk6GJQsqaUBKTNV-0" />
        <mxCell id="WIyWlLk6GJQsqaUBKTNV-1" parent="WIyWlLk6GJQsqaUBKTNV-0" />
        <mxCell id="ufcxnx_7CU1jS0cniteA-9" style="rounded=0;orthogonalLoop=1;jettySize=auto;html=1;exitX=1;exitY=0.5;exitDx=0;exitDy=0;entryX=0;entryY=0.5;entryDx=0;entryDy=0;startArrow=none;startFill=0;endArrow=none;endFill=0;" parent="WIyWlLk6GJQsqaUBKTNV-1" source="ufcxnx_7CU1jS0cniteA-0" target="ufcxnx_7CU1jS0cniteA-4" edge="1">
          <mxGeometry relative="1" as="geometry" />
        </mxCell>
        <mxCell id="kW68K_AjfZWNpstrsacn-1" style="rounded=0;orthogonalLoop=1;jettySize=auto;html=1;exitX=0;exitY=0.5;exitDx=0;exitDy=0;endArrow=none;endFill=0;entryX=1;entryY=0.5;entryDx=0;entryDy=0;" parent="WIyWlLk6GJQsqaUBKTNV-1" source="ufcxnx_7CU1jS0cniteA-0" target="kW68K_AjfZWNpstrsacn-4" edge="1">
          <mxGeometry relative="1" as="geometry">
            <mxPoint x="270" y="462" as="targetPoint" />
          </mxGeometry>
        </mxCell>
        <mxCell id="ufcxnx_7CU1jS0cniteA-0" value="USUARIO" style="rounded=0;whiteSpace=wrap;html=1;" parent="WIyWlLk6GJQsqaUBKTNV-1" vertex="1">
          <mxGeometry x="285" y="290" width="120" height="40" as="geometry" />
        </mxCell>
        <mxCell id="aXpjp5L2mGXIOk60y4gZ-0" style="edgeStyle=orthogonalEdgeStyle;rounded=0;orthogonalLoop=1;jettySize=auto;html=1;exitX=0.5;exitY=0;exitDx=0;exitDy=0;entryX=0.5;entryY=1;entryDx=0;entryDy=0;endArrow=ERmany;endFill=0;startArrow=ERone;startFill=0;shape=link;" parent="WIyWlLk6GJQsqaUBKTNV-1" source="ufcxnx_7CU1jS0cniteA-1" target="ufcxnx_7CU1jS0cniteA-6" edge="1">
          <mxGeometry relative="1" as="geometry" />
        </mxCell>
        <mxCell id="ufcxnx_7CU1jS0cniteA-1" value="PROVEEDOR" style="rounded=0;whiteSpace=wrap;html=1;strokeWidth=3;" parent="WIyWlLk6GJQsqaUBKTNV-1" vertex="1">
          <mxGeometry x="465" y="720" width="120" height="40" as="geometry" />
        </mxCell>
        <mxCell id="ufcxnx_7CU1jS0cniteA-14" style="edgeStyle=none;rounded=0;orthogonalLoop=1;jettySize=auto;html=1;exitX=0;exitY=0.5;exitDx=0;exitDy=0;entryX=1;entryY=0.5;entryDx=0;entryDy=0;startArrow=ERone;startFill=0;endArrow=ERone;endFill=0;shape=link;" parent="WIyWlLk6GJQsqaUBKTNV-1" source="ufcxnx_7CU1jS0cniteA-2" target="ufcxnx_7CU1jS0cniteA-5" edge="1">
          <mxGeometry relative="1" as="geometry" />
        </mxCell>
        <mxCell id="ufcxnx_7CU1jS0cniteA-2" value="LABORATORIO" style="rounded=0;whiteSpace=wrap;html=1;" parent="WIyWlLk6GJQsqaUBKTNV-1" vertex="1">
          <mxGeometry x="1155" y="290" width="120" height="40" as="geometry" />
        </mxCell>
        <mxCell id="ufcxnx_7CU1jS0cniteA-12" style="edgeStyle=none;orthogonalLoop=1;jettySize=auto;html=1;exitX=0;exitY=0.5;exitDx=0;exitDy=0;startArrow=none;startFill=0;endArrow=none;endFill=0;endSize=6;rounded=0;fillOpacity=100;jumpStyle=none;labelBorderColor=none;fontStyle=1;" parent="WIyWlLk6GJQsqaUBKTNV-1" source="ufcxnx_7CU1jS0cniteA-3" target="ufcxnx_7CU1jS0cniteA-4" edge="1">
          <mxGeometry relative="1" as="geometry" />
        </mxCell>
        <mxCell id="ufcxnx_7CU1jS0cniteA-13" style="edgeStyle=none;rounded=0;orthogonalLoop=1;jettySize=auto;html=1;exitX=1;exitY=0.5;exitDx=0;exitDy=0;entryX=0;entryY=0.5;entryDx=0;entryDy=0;startArrow=none;startFill=0;endArrow=ERmany;endFill=0;shape=link;" parent="WIyWlLk6GJQsqaUBKTNV-1" source="ufcxnx_7CU1jS0cniteA-3" target="ufcxnx_7CU1jS0cniteA-5" edge="1">
          <mxGeometry relative="1" as="geometry" />
        </mxCell>
        <mxCell id="aXpjp5L2mGXIOk60y4gZ-1" style="rounded=0;orthogonalLoop=1;jettySize=auto;html=1;exitX=0.25;exitY=1;exitDx=0;exitDy=0;endArrow=none;endFill=0;startArrow=none;startFill=0;" parent="WIyWlLk6GJQsqaUBKTNV-1" source="ufcxnx_7CU1jS0cniteA-3" target="ufcxnx_7CU1jS0cniteA-6" edge="1">
          <mxGeometry relative="1" as="geometry" />
        </mxCell>
        <mxCell id="GSZTqbS2n0hg8-wi25U2-13" style="edgeStyle=none;rounded=0;orthogonalLoop=1;jettySize=auto;html=1;exitX=0.5;exitY=1;exitDx=0;exitDy=0;entryX=0.5;entryY=0;entryDx=0;entryDy=0;endArrow=none;endFill=0;" parent="WIyWlLk6GJQsqaUBKTNV-1" source="ufcxnx_7CU1jS0cniteA-3" target="GSZTqbS2n0hg8-wi25U2-2" edge="1">
          <mxGeometry relative="1" as="geometry" />
        </mxCell>
        <mxCell id="ufcxnx_7CU1jS0cniteA-3" value="PRODUCTO" style="rounded=0;whiteSpace=wrap;html=1;strokeWidth=3;absoluteArcSize=0;backgroundOutline=0;collapsible=0;dropTarget=0;container=0;perimeter=rectanglePerimeter;snapToPoint=0;imageAspect=1;perimeterSpacing=0;glass=0;sketch=0;shadow=0;" parent="WIyWlLk6GJQsqaUBKTNV-1" vertex="1">
          <mxGeometry x="685" y="290" width="120" height="40" as="geometry" />
        </mxCell>
        <mxCell id="kW68K_AjfZWNpstrsacn-12" style="edgeStyle=none;rounded=0;orthogonalLoop=1;jettySize=auto;html=1;exitX=0;exitY=1;exitDx=0;exitDy=0;entryX=0.5;entryY=0;entryDx=0;entryDy=0;endArrow=none;endFill=0;" parent="WIyWlLk6GJQsqaUBKTNV-1" source="ufcxnx_7CU1jS0cniteA-4" target="kW68K_AjfZWNpstrsacn-11" edge="1">
          <mxGeometry relative="1" as="geometry" />
        </mxCell>
        <mxCell id="ufcxnx_7CU1jS0cniteA-4" value="modifica" style="rhombus;whiteSpace=wrap;html=1;" parent="WIyWlLk6GJQsqaUBKTNV-1" vertex="1">
          <mxGeometry x="505" y="270" width="80" height="80" as="geometry" />
        </mxCell>
        <mxCell id="ufcxnx_7CU1jS0cniteA-5" value="pertenece" style="rhombus;whiteSpace=wrap;html=1;comic=0;treeMoving=0;treeFolding=0;resizeHeight=0;resizeWidth=0;movableLabel=0;backgroundOutline=0;metaEdit=0;collapsible=0;recursiveResize=1;expand=1;editable=1;movable=1;resizable=1;rotatable=1;cloneable=1;deletable=1;fixDash=0;autosize=0;container=0;dropTarget=0;snapToPoint=0;allowArrows=1;connectable=1;portConstraintRotation=0;labelPadding=0;noLabel=0;strokeOpacity=100;double=1;" parent="WIyWlLk6GJQsqaUBKTNV-1" vertex="1">
          <mxGeometry x="955" y="270" width="80" height="80" as="geometry" />
        </mxCell>
        <mxCell id="ufcxnx_7CU1jS0cniteA-6" value="entrega" style="rhombus;whiteSpace=wrap;html=1;" parent="WIyWlLk6GJQsqaUBKTNV-1" vertex="1">
          <mxGeometry x="485" y="510" width="80" height="80" as="geometry" />
        </mxCell>
        <mxCell id="zVfTYqhrj5i_tpfByODb-11" style="edgeStyle=none;rounded=0;orthogonalLoop=1;jettySize=auto;html=1;exitX=1;exitY=0.5;exitDx=0;exitDy=0;entryX=0;entryY=0.5;entryDx=0;entryDy=0;endArrow=none;endFill=0;" parent="WIyWlLk6GJQsqaUBKTNV-1" source="zVfTYqhrj5i_tpfByODb-0" target="ufcxnx_7CU1jS0cniteA-0" edge="1">
          <mxGeometry relative="1" as="geometry" />
        </mxCell>
        <mxCell id="zVfTYqhrj5i_tpfByODb-0" value="CarnetDNM_user" style="ellipse;whiteSpace=wrap;html=1;" parent="WIyWlLk6GJQsqaUBKTNV-1" vertex="1">
          <mxGeometry x="110" y="375" width="120" height="30" as="geometry" />
        </mxCell>
        <mxCell id="zVfTYqhrj5i_tpfByODb-10" style="edgeStyle=none;rounded=0;orthogonalLoop=1;jettySize=auto;html=1;exitX=1;exitY=0.5;exitDx=0;exitDy=0;entryX=0;entryY=0.5;entryDx=0;entryDy=0;endArrow=none;endFill=0;" parent="WIyWlLk6GJQsqaUBKTNV-1" source="zVfTYqhrj5i_tpfByODb-1" target="ufcxnx_7CU1jS0cniteA-0" edge="1">
          <mxGeometry relative="1" as="geometry" />
        </mxCell>
        <mxCell id="zVfTYqhrj5i_tpfByODb-1" value="sexo_user" style="ellipse;whiteSpace=wrap;html=1;" parent="WIyWlLk6GJQsqaUBKTNV-1" vertex="1">
          <mxGeometry x="110" y="335" width="120" height="30" as="geometry" />
        </mxCell>
        <mxCell id="zVfTYqhrj5i_tpfByODb-9" style="edgeStyle=none;rounded=0;orthogonalLoop=1;jettySize=auto;html=1;exitX=1;exitY=0.5;exitDx=0;exitDy=0;entryX=0;entryY=0.5;entryDx=0;entryDy=0;endArrow=none;endFill=0;" parent="WIyWlLk6GJQsqaUBKTNV-1" source="zVfTYqhrj5i_tpfByODb-2" target="ufcxnx_7CU1jS0cniteA-0" edge="1">
          <mxGeometry relative="1" as="geometry" />
        </mxCell>
        <mxCell id="zVfTYqhrj5i_tpfByODb-2" value="Fecha_nacimiento" style="ellipse;whiteSpace=wrap;html=1;perimeter=ellipsePerimeter;backgroundOutline=1;shadow=0;sketch=0;fillStyle=zigzag;" parent="WIyWlLk6GJQsqaUBKTNV-1" vertex="1">
          <mxGeometry x="110" y="295" width="120" height="30" as="geometry" />
        </mxCell>
        <mxCell id="zVfTYqhrj5i_tpfByODb-8" style="edgeStyle=none;rounded=0;orthogonalLoop=1;jettySize=auto;html=1;exitX=1;exitY=0.5;exitDx=0;exitDy=0;entryX=0;entryY=0.5;entryDx=0;entryDy=0;endArrow=none;endFill=0;" parent="WIyWlLk6GJQsqaUBKTNV-1" source="zVfTYqhrj5i_tpfByODb-3" target="ufcxnx_7CU1jS0cniteA-0" edge="1">
          <mxGeometry relative="1" as="geometry" />
        </mxCell>
        <mxCell id="zVfTYqhrj5i_tpfByODb-3" value="apellido_user" style="ellipse;whiteSpace=wrap;html=1;" parent="WIyWlLk6GJQsqaUBKTNV-1" vertex="1">
          <mxGeometry x="110" y="250" width="120" height="30" as="geometry" />
        </mxCell>
        <mxCell id="zVfTYqhrj5i_tpfByODb-7" style="edgeStyle=none;rounded=0;orthogonalLoop=1;jettySize=auto;html=1;exitX=1;exitY=0.5;exitDx=0;exitDy=0;entryX=0;entryY=0.5;entryDx=0;entryDy=0;endArrow=none;endFill=0;" parent="WIyWlLk6GJQsqaUBKTNV-1" source="zVfTYqhrj5i_tpfByODb-4" target="ufcxnx_7CU1jS0cniteA-0" edge="1">
          <mxGeometry relative="1" as="geometry" />
        </mxCell>
        <mxCell id="zVfTYqhrj5i_tpfByODb-4" value="nombre_user" style="ellipse;whiteSpace=wrap;html=1;" parent="WIyWlLk6GJQsqaUBKTNV-1" vertex="1">
          <mxGeometry x="110" y="205" width="120" height="30" as="geometry" />
        </mxCell>
        <mxCell id="zVfTYqhrj5i_tpfByODb-6" style="rounded=0;orthogonalLoop=1;jettySize=auto;html=1;exitX=1;exitY=0.5;exitDx=0;exitDy=0;entryX=0;entryY=0.5;entryDx=0;entryDy=0;endArrow=none;endFill=0;" parent="WIyWlLk6GJQsqaUBKTNV-1" source="zVfTYqhrj5i_tpfByODb-5" target="ufcxnx_7CU1jS0cniteA-0" edge="1">
          <mxGeometry relative="1" as="geometry" />
        </mxCell>
        <mxCell id="zVfTYqhrj5i_tpfByODb-5" value="Id_user" style="ellipse;whiteSpace=wrap;html=1;fontStyle=4" parent="WIyWlLk6GJQsqaUBKTNV-1" vertex="1">
          <mxGeometry x="110" y="165" width="120" height="30" as="geometry" />
        </mxCell>
        <mxCell id="zVfTYqhrj5i_tpfByODb-29" style="edgeStyle=none;rounded=0;orthogonalLoop=1;jettySize=auto;html=1;exitX=1;exitY=0.5;exitDx=0;exitDy=0;entryX=0;entryY=0.5;entryDx=0;entryDy=0;endArrow=none;endFill=0;" parent="WIyWlLk6GJQsqaUBKTNV-1" source="zVfTYqhrj5i_tpfByODb-19" target="ufcxnx_7CU1jS0cniteA-1" edge="1">
          <mxGeometry relative="1" as="geometry" />
        </mxCell>
        <mxCell id="zVfTYqhrj5i_tpfByODb-19" value="email_proveedor" style="ellipse;whiteSpace=wrap;html=1;" parent="WIyWlLk6GJQsqaUBKTNV-1" vertex="1">
          <mxGeometry x="245" y="820" width="120" height="30" as="geometry" />
        </mxCell>
        <mxCell id="zVfTYqhrj5i_tpfByODb-28" style="edgeStyle=none;rounded=0;orthogonalLoop=1;jettySize=auto;html=1;exitX=1;exitY=0.5;exitDx=0;exitDy=0;entryX=0;entryY=0.5;entryDx=0;entryDy=0;endArrow=none;endFill=0;" parent="WIyWlLk6GJQsqaUBKTNV-1" source="kW68K_AjfZWNpstrsacn-9" target="ufcxnx_7CU1jS0cniteA-1" edge="1">
          <mxGeometry relative="1" as="geometry">
            <mxPoint x="365" y="795" as="sourcePoint" />
          </mxGeometry>
        </mxCell>
        <mxCell id="zVfTYqhrj5i_tpfByODb-27" style="edgeStyle=none;rounded=0;orthogonalLoop=1;jettySize=auto;html=1;exitX=1;exitY=0.5;exitDx=0;exitDy=0;entryX=0;entryY=0.5;entryDx=0;entryDy=0;endArrow=none;endFill=0;" parent="WIyWlLk6GJQsqaUBKTNV-1" source="zVfTYqhrj5i_tpfByODb-21" target="ufcxnx_7CU1jS0cniteA-1" edge="1">
          <mxGeometry relative="1" as="geometry" />
        </mxCell>
        <mxCell id="zVfTYqhrj5i_tpfByODb-21" value="direccion_proveedor" style="ellipse;whiteSpace=wrap;html=1;" parent="WIyWlLk6GJQsqaUBKTNV-1" vertex="1">
          <mxGeometry x="245" y="735" width="120" height="30" as="geometry" />
        </mxCell>
        <mxCell id="zVfTYqhrj5i_tpfByODb-26" style="edgeStyle=none;rounded=0;orthogonalLoop=1;jettySize=auto;html=1;exitX=1;exitY=0.5;exitDx=0;exitDy=0;entryX=0;entryY=0.5;entryDx=0;entryDy=0;endArrow=none;endFill=0;" parent="WIyWlLk6GJQsqaUBKTNV-1" source="zVfTYqhrj5i_tpfByODb-22" target="ufcxnx_7CU1jS0cniteA-1" edge="1">
          <mxGeometry relative="1" as="geometry" />
        </mxCell>
        <mxCell id="zVfTYqhrj5i_tpfByODb-22" value="nombre_proveedor" style="ellipse;whiteSpace=wrap;html=1;" parent="WIyWlLk6GJQsqaUBKTNV-1" vertex="1">
          <mxGeometry x="245" y="690" width="120" height="30" as="geometry" />
        </mxCell>
        <mxCell id="zVfTYqhrj5i_tpfByODb-24" style="edgeStyle=none;rounded=0;orthogonalLoop=1;jettySize=auto;html=1;exitX=1;exitY=0.5;exitDx=0;exitDy=0;entryX=0;entryY=0.5;entryDx=0;entryDy=0;endArrow=none;endFill=0;" parent="WIyWlLk6GJQsqaUBKTNV-1" source="zVfTYqhrj5i_tpfByODb-23" target="ufcxnx_7CU1jS0cniteA-1" edge="1">
          <mxGeometry relative="1" as="geometry" />
        </mxCell>
        <mxCell id="zVfTYqhrj5i_tpfByODb-23" value="Id_proveedor" style="ellipse;whiteSpace=wrap;html=1;fontStyle=4" parent="WIyWlLk6GJQsqaUBKTNV-1" vertex="1">
          <mxGeometry x="245" y="650" width="120" height="30" as="geometry" />
        </mxCell>
        <mxCell id="zVfTYqhrj5i_tpfByODb-39" style="edgeStyle=none;rounded=0;orthogonalLoop=1;jettySize=auto;html=1;exitX=1;exitY=0.5;exitDx=0;exitDy=0;entryX=0.5;entryY=1;entryDx=0;entryDy=0;endArrow=none;endFill=0;" parent="WIyWlLk6GJQsqaUBKTNV-1" source="zVfTYqhrj5i_tpfByODb-30" target="ufcxnx_7CU1jS0cniteA-2" edge="1">
          <mxGeometry relative="1" as="geometry" />
        </mxCell>
        <mxCell id="zVfTYqhrj5i_tpfByODb-30" value="email_laboratorio" style="ellipse;whiteSpace=wrap;html=1;" parent="WIyWlLk6GJQsqaUBKTNV-1" vertex="1">
          <mxGeometry x="1130" y="535" width="120" height="30" as="geometry" />
        </mxCell>
        <mxCell id="zVfTYqhrj5i_tpfByODb-38" style="edgeStyle=none;rounded=0;orthogonalLoop=1;jettySize=auto;html=1;exitX=1;exitY=0.5;exitDx=0;exitDy=0;entryX=0.5;entryY=1;entryDx=0;entryDy=0;endArrow=none;endFill=0;" parent="WIyWlLk6GJQsqaUBKTNV-1" source="kW68K_AjfZWNpstrsacn-10" target="ufcxnx_7CU1jS0cniteA-2" edge="1">
          <mxGeometry relative="1" as="geometry">
            <mxPoint x="1220" y="510" as="sourcePoint" />
          </mxGeometry>
        </mxCell>
        <mxCell id="zVfTYqhrj5i_tpfByODb-37" style="edgeStyle=none;rounded=0;orthogonalLoop=1;jettySize=auto;html=1;exitX=1;exitY=0.5;exitDx=0;exitDy=0;entryX=0.5;entryY=1;entryDx=0;entryDy=0;endArrow=none;endFill=0;" parent="WIyWlLk6GJQsqaUBKTNV-1" source="zVfTYqhrj5i_tpfByODb-32" target="ufcxnx_7CU1jS0cniteA-2" edge="1">
          <mxGeometry relative="1" as="geometry" />
        </mxCell>
        <mxCell id="zVfTYqhrj5i_tpfByODb-32" value="direccion_laboratorio" style="ellipse;whiteSpace=wrap;html=1;" parent="WIyWlLk6GJQsqaUBKTNV-1" vertex="1">
          <mxGeometry x="1080" y="455" width="120" height="30" as="geometry" />
        </mxCell>
        <mxCell id="zVfTYqhrj5i_tpfByODb-36" style="edgeStyle=none;rounded=0;orthogonalLoop=1;jettySize=auto;html=1;exitX=1;exitY=0.5;exitDx=0;exitDy=0;entryX=0.5;entryY=1;entryDx=0;entryDy=0;endArrow=none;endFill=0;" parent="WIyWlLk6GJQsqaUBKTNV-1" source="zVfTYqhrj5i_tpfByODb-33" target="ufcxnx_7CU1jS0cniteA-2" edge="1">
          <mxGeometry relative="1" as="geometry" />
        </mxCell>
        <mxCell id="zVfTYqhrj5i_tpfByODb-33" value="nombre_laboratorio" style="ellipse;whiteSpace=wrap;html=1;" parent="WIyWlLk6GJQsqaUBKTNV-1" vertex="1">
          <mxGeometry x="1050" y="415" width="120" height="30" as="geometry" />
        </mxCell>
        <mxCell id="zVfTYqhrj5i_tpfByODb-35" style="edgeStyle=none;rounded=0;orthogonalLoop=1;jettySize=auto;html=1;exitX=1;exitY=0.5;exitDx=0;exitDy=0;entryX=0.5;entryY=1;entryDx=0;entryDy=0;endArrow=none;endFill=0;" parent="WIyWlLk6GJQsqaUBKTNV-1" source="zVfTYqhrj5i_tpfByODb-34" target="ufcxnx_7CU1jS0cniteA-2" edge="1">
          <mxGeometry relative="1" as="geometry" />
        </mxCell>
        <mxCell id="zVfTYqhrj5i_tpfByODb-34" value="Id_laboratorio" style="ellipse;whiteSpace=wrap;html=1;fontStyle=4" parent="WIyWlLk6GJQsqaUBKTNV-1" vertex="1">
          <mxGeometry x="1030" y="375" width="120" height="30" as="geometry" />
        </mxCell>
        <mxCell id="aeBCcG8LEX4g62cLXD4p-11" style="rounded=0;orthogonalLoop=1;jettySize=auto;html=1;exitX=1;exitY=0.5;exitDx=0;exitDy=0;entryX=0.5;entryY=0;entryDx=0;entryDy=0;endArrow=none;endFill=0;" parent="WIyWlLk6GJQsqaUBKTNV-1" source="aeBCcG8LEX4g62cLXD4p-0" target="ufcxnx_7CU1jS0cniteA-3" edge="1">
          <mxGeometry relative="1" as="geometry" />
        </mxCell>
        <mxCell id="aeBCcG8LEX4g62cLXD4p-0" value="registro_sanitario" style="ellipse;whiteSpace=wrap;html=1;" parent="WIyWlLk6GJQsqaUBKTNV-1" vertex="1">
          <mxGeometry x="490" y="215" width="120" height="30" as="geometry" />
        </mxCell>
        <mxCell id="aeBCcG8LEX4g62cLXD4p-12" style="edgeStyle=none;rounded=0;orthogonalLoop=1;jettySize=auto;html=1;exitX=1;exitY=0.5;exitDx=0;exitDy=0;entryX=0.5;entryY=0;entryDx=0;entryDy=0;endArrow=none;endFill=0;" parent="WIyWlLk6GJQsqaUBKTNV-1" source="aeBCcG8LEX4g62cLXD4p-2" target="ufcxnx_7CU1jS0cniteA-3" edge="1">
          <mxGeometry relative="1" as="geometry" />
        </mxCell>
        <mxCell id="aeBCcG8LEX4g62cLXD4p-2" value="vencimiento _product" style="ellipse;whiteSpace=wrap;html=1;" parent="WIyWlLk6GJQsqaUBKTNV-1" vertex="1">
          <mxGeometry x="510" y="185" width="120" height="30" as="geometry" />
        </mxCell>
        <mxCell id="aeBCcG8LEX4g62cLXD4p-13" style="edgeStyle=none;rounded=0;orthogonalLoop=1;jettySize=auto;html=1;exitX=1;exitY=0.5;exitDx=0;exitDy=0;entryX=0.5;entryY=0;entryDx=0;entryDy=0;endArrow=none;endFill=0;" parent="WIyWlLk6GJQsqaUBKTNV-1" source="aeBCcG8LEX4g62cLXD4p-3" target="ufcxnx_7CU1jS0cniteA-3" edge="1">
          <mxGeometry relative="1" as="geometry" />
        </mxCell>
        <mxCell id="aeBCcG8LEX4g62cLXD4p-3" value="tipo_producto" style="ellipse;whiteSpace=wrap;html=1;" parent="WIyWlLk6GJQsqaUBKTNV-1" vertex="1">
          <mxGeometry x="515" y="155" width="120" height="30" as="geometry" />
        </mxCell>
        <mxCell id="aeBCcG8LEX4g62cLXD4p-14" style="edgeStyle=none;rounded=0;orthogonalLoop=1;jettySize=auto;html=1;exitX=1;exitY=0.5;exitDx=0;exitDy=0;entryX=0.5;entryY=0;entryDx=0;entryDy=0;endArrow=none;endFill=0;" parent="WIyWlLk6GJQsqaUBKTNV-1" source="aeBCcG8LEX4g62cLXD4p-4" target="ufcxnx_7CU1jS0cniteA-3" edge="1">
          <mxGeometry relative="1" as="geometry" />
        </mxCell>
        <mxCell id="aeBCcG8LEX4g62cLXD4p-4" value="nombre_producto" style="ellipse;whiteSpace=wrap;html=1;" parent="WIyWlLk6GJQsqaUBKTNV-1" vertex="1">
          <mxGeometry x="525" y="125" width="120" height="30" as="geometry" />
        </mxCell>
        <mxCell id="aeBCcG8LEX4g62cLXD4p-15" style="edgeStyle=none;rounded=0;orthogonalLoop=1;jettySize=auto;html=1;exitX=1;exitY=0.5;exitDx=0;exitDy=0;entryX=0.5;entryY=0;entryDx=0;entryDy=0;endArrow=none;endFill=0;" parent="WIyWlLk6GJQsqaUBKTNV-1" source="aeBCcG8LEX4g62cLXD4p-5" target="ufcxnx_7CU1jS0cniteA-3" edge="1">
          <mxGeometry relative="1" as="geometry" />
        </mxCell>
        <mxCell id="aeBCcG8LEX4g62cLXD4p-5" value="Id_producto" style="ellipse;whiteSpace=wrap;html=1;fontStyle=4" parent="WIyWlLk6GJQsqaUBKTNV-1" vertex="1">
          <mxGeometry x="535" y="95" width="120" height="30" as="geometry" />
        </mxCell>
        <mxCell id="aeBCcG8LEX4g62cLXD4p-16" style="edgeStyle=none;rounded=0;orthogonalLoop=1;jettySize=auto;html=1;exitX=0;exitY=0.5;exitDx=0;exitDy=0;entryX=0.5;entryY=0;entryDx=0;entryDy=0;endArrow=none;endFill=0;" parent="WIyWlLk6GJQsqaUBKTNV-1" source="kW68K_AjfZWNpstrsacn-13" target="ufcxnx_7CU1jS0cniteA-3" edge="1">
          <mxGeometry relative="1" as="geometry">
            <mxPoint x="835" y="115" as="sourcePoint" />
          </mxGeometry>
        </mxCell>
        <mxCell id="aeBCcG8LEX4g62cLXD4p-17" style="edgeStyle=none;rounded=0;orthogonalLoop=1;jettySize=auto;html=1;exitX=0;exitY=0.5;exitDx=0;exitDy=0;entryX=0.5;entryY=0;entryDx=0;entryDy=0;endArrow=none;endFill=0;" parent="WIyWlLk6GJQsqaUBKTNV-1" source="aeBCcG8LEX4g62cLXD4p-7" target="ufcxnx_7CU1jS0cniteA-3" edge="1">
          <mxGeometry relative="1" as="geometry" />
        </mxCell>
        <mxCell id="aeBCcG8LEX4g62cLXD4p-7" value="dosis_recomendada" style="ellipse;whiteSpace=wrap;html=1;" parent="WIyWlLk6GJQsqaUBKTNV-1" vertex="1">
          <mxGeometry x="855" y="130" width="120" height="30" as="geometry" />
        </mxCell>
        <mxCell id="aeBCcG8LEX4g62cLXD4p-18" style="edgeStyle=none;rounded=0;orthogonalLoop=1;jettySize=auto;html=1;exitX=0;exitY=0.5;exitDx=0;exitDy=0;entryX=0.5;entryY=0;entryDx=0;entryDy=0;endArrow=none;endFill=0;" parent="WIyWlLk6GJQsqaUBKTNV-1" source="aeBCcG8LEX4g62cLXD4p-8" target="ufcxnx_7CU1jS0cniteA-3" edge="1">
          <mxGeometry relative="1" as="geometry" />
        </mxCell>
        <mxCell id="aeBCcG8LEX4g62cLXD4p-8" value="contraindicaciones" style="ellipse;whiteSpace=wrap;html=1;" parent="WIyWlLk6GJQsqaUBKTNV-1" vertex="1">
          <mxGeometry x="865" y="160" width="120" height="30" as="geometry" />
        </mxCell>
        <mxCell id="aeBCcG8LEX4g62cLXD4p-19" style="edgeStyle=none;rounded=0;orthogonalLoop=1;jettySize=auto;html=1;exitX=0;exitY=0.5;exitDx=0;exitDy=0;entryX=0.5;entryY=0;entryDx=0;entryDy=0;endArrow=none;endFill=0;" parent="WIyWlLk6GJQsqaUBKTNV-1" source="aeBCcG8LEX4g62cLXD4p-9" target="ufcxnx_7CU1jS0cniteA-3" edge="1">
          <mxGeometry relative="1" as="geometry" />
        </mxCell>
        <mxCell id="aeBCcG8LEX4g62cLXD4p-9" value="cantidad_per_unidad" style="ellipse;whiteSpace=wrap;html=1;" parent="WIyWlLk6GJQsqaUBKTNV-1" vertex="1">
          <mxGeometry x="885" y="190" width="120" height="30" as="geometry" />
        </mxCell>
        <mxCell id="aeBCcG8LEX4g62cLXD4p-20" style="edgeStyle=none;rounded=0;orthogonalLoop=1;jettySize=auto;html=1;exitX=0;exitY=0.5;exitDx=0;exitDy=0;entryX=0.5;entryY=0;entryDx=0;entryDy=0;endArrow=none;endFill=0;" parent="WIyWlLk6GJQsqaUBKTNV-1" source="aeBCcG8LEX4g62cLXD4p-10" target="ufcxnx_7CU1jS0cniteA-3" edge="1">
          <mxGeometry relative="1" as="geometry" />
        </mxCell>
        <mxCell id="aeBCcG8LEX4g62cLXD4p-10" value="cantidad_stock" style="ellipse;whiteSpace=wrap;html=1;" parent="WIyWlLk6GJQsqaUBKTNV-1" vertex="1">
          <mxGeometry x="895" y="220" width="120" height="30" as="geometry" />
        </mxCell>
        <mxCell id="nRbCUXbaDgXLGz_jltP8-0" style="rounded=0;orthogonalLoop=1;jettySize=auto;html=1;exitX=1;exitY=0.5;exitDx=0;exitDy=0;endArrow=none;endFill=0;" parent="WIyWlLk6GJQsqaUBKTNV-1" source="aeBCcG8LEX4g62cLXD4p-22" edge="1">
          <mxGeometry relative="1" as="geometry">
            <mxPoint x="745" y="290" as="targetPoint" />
          </mxGeometry>
        </mxCell>
        <mxCell id="aeBCcG8LEX4g62cLXD4p-22" value="descuento" style="ellipse;whiteSpace=wrap;html=1;dashed=1;" parent="WIyWlLk6GJQsqaUBKTNV-1" vertex="1">
          <mxGeometry x="545" y="65" width="120" height="30" as="geometry" />
        </mxCell>
        <mxCell id="nRbCUXbaDgXLGz_jltP8-3" style="edgeStyle=none;rounded=0;orthogonalLoop=1;jettySize=auto;html=1;exitX=0.5;exitY=1;exitDx=0;exitDy=0;entryX=0.5;entryY=0;entryDx=0;entryDy=0;endArrow=none;endFill=0;" parent="WIyWlLk6GJQsqaUBKTNV-1" source="aeBCcG8LEX4g62cLXD4p-23" target="ufcxnx_7CU1jS0cniteA-3" edge="1">
          <mxGeometry relative="1" as="geometry" />
        </mxCell>
        <mxCell id="aeBCcG8LEX4g62cLXD4p-23" value="precio_publico" style="ellipse;whiteSpace=wrap;html=1;" parent="WIyWlLk6GJQsqaUBKTNV-1" vertex="1">
          <mxGeometry x="750" y="40" width="120" height="30" as="geometry" />
        </mxCell>
        <mxCell id="nRbCUXbaDgXLGz_jltP8-4" style="edgeStyle=none;rounded=0;orthogonalLoop=1;jettySize=auto;html=1;exitX=0;exitY=0.5;exitDx=0;exitDy=0;entryX=0.5;entryY=0;entryDx=0;entryDy=0;endArrow=none;endFill=0;" parent="WIyWlLk6GJQsqaUBKTNV-1" source="aeBCcG8LEX4g62cLXD4p-24" target="ufcxnx_7CU1jS0cniteA-3" edge="1">
          <mxGeometry relative="1" as="geometry" />
        </mxCell>
        <mxCell id="aeBCcG8LEX4g62cLXD4p-24" value="precio_compra" style="ellipse;whiteSpace=wrap;html=1;" parent="WIyWlLk6GJQsqaUBKTNV-1" vertex="1">
          <mxGeometry x="815" y="70" width="120" height="30" as="geometry" />
        </mxCell>
        <mxCell id="nRbCUXbaDgXLGz_jltP8-2" style="edgeStyle=none;rounded=0;orthogonalLoop=1;jettySize=auto;html=1;exitX=0.5;exitY=1;exitDx=0;exitDy=0;entryX=0.5;entryY=0;entryDx=0;entryDy=0;endArrow=none;endFill=0;" parent="WIyWlLk6GJQsqaUBKTNV-1" source="aeBCcG8LEX4g62cLXD4p-25" target="ufcxnx_7CU1jS0cniteA-3" edge="1">
          <mxGeometry relative="1" as="geometry" />
        </mxCell>
        <mxCell id="aeBCcG8LEX4g62cLXD4p-25" value="descripcion" style="ellipse;whiteSpace=wrap;html=1;" parent="WIyWlLk6GJQsqaUBKTNV-1" vertex="1">
          <mxGeometry x="630" y="40" width="120" height="30" as="geometry" />
        </mxCell>
        <mxCell id="GSZTqbS2n0hg8-wi25U2-0" style="rounded=0;orthogonalLoop=1;jettySize=auto;html=1;exitX=0.5;exitY=0;exitDx=0;exitDy=0;entryX=0.5;entryY=1;entryDx=0;entryDy=0;endArrow=ERone;endFill=0;startArrow=ERone;startFill=0;shape=link;" parent="WIyWlLk6GJQsqaUBKTNV-1" source="GSZTqbS2n0hg8-wi25U2-1" target="GSZTqbS2n0hg8-wi25U2-2" edge="1">
          <mxGeometry relative="1" as="geometry" />
        </mxCell>
        <mxCell id="GSZTqbS2n0hg8-wi25U2-1" value="CATEGORIA" style="rounded=0;whiteSpace=wrap;html=1;strokeWidth=3;" parent="WIyWlLk6GJQsqaUBKTNV-1" vertex="1">
          <mxGeometry x="685" y="687.5" width="120" height="40" as="geometry" />
        </mxCell>
        <mxCell id="GSZTqbS2n0hg8-wi25U2-2" value="Divide" style="rhombus;whiteSpace=wrap;html=1;double=0;" parent="WIyWlLk6GJQsqaUBKTNV-1" vertex="1">
          <mxGeometry x="705" y="470" width="80" height="80" as="geometry" />
        </mxCell>
        <mxCell id="GSZTqbS2n0hg8-wi25U2-7" style="edgeStyle=none;rounded=0;orthogonalLoop=1;jettySize=auto;html=1;exitX=0;exitY=0.5;exitDx=0;exitDy=0;entryX=1;entryY=0.5;entryDx=0;entryDy=0;endArrow=none;endFill=0;" parent="WIyWlLk6GJQsqaUBKTNV-1" source="GSZTqbS2n0hg8-wi25U2-8" target="GSZTqbS2n0hg8-wi25U2-1" edge="1">
          <mxGeometry relative="1" as="geometry" />
        </mxCell>
        <mxCell id="GSZTqbS2n0hg8-wi25U2-8" value="descripcion" style="ellipse;whiteSpace=wrap;html=1;" parent="WIyWlLk6GJQsqaUBKTNV-1" vertex="1">
          <mxGeometry x="910" y="735" width="120" height="30" as="geometry" />
        </mxCell>
        <mxCell id="GSZTqbS2n0hg8-wi25U2-9" style="edgeStyle=none;rounded=0;orthogonalLoop=1;jettySize=auto;html=1;exitX=0;exitY=0.5;exitDx=0;exitDy=0;endArrow=none;endFill=0;entryX=1;entryY=0.5;entryDx=0;entryDy=0;" parent="WIyWlLk6GJQsqaUBKTNV-1" source="GSZTqbS2n0hg8-wi25U2-10" target="GSZTqbS2n0hg8-wi25U2-1" edge="1">
          <mxGeometry relative="1" as="geometry">
            <mxPoint x="685" y="707.5" as="targetPoint" />
          </mxGeometry>
        </mxCell>
        <mxCell id="GSZTqbS2n0hg8-wi25U2-10" value="nombre_categoria" style="ellipse;whiteSpace=wrap;html=1;" parent="WIyWlLk6GJQsqaUBKTNV-1" vertex="1">
          <mxGeometry x="910" y="690" width="120" height="30" as="geometry" />
        </mxCell>
        <mxCell id="GSZTqbS2n0hg8-wi25U2-11" style="edgeStyle=none;rounded=0;orthogonalLoop=1;jettySize=auto;html=1;exitX=0;exitY=0.5;exitDx=0;exitDy=0;entryX=1;entryY=0.5;entryDx=0;entryDy=0;endArrow=none;endFill=0;" parent="WIyWlLk6GJQsqaUBKTNV-1" source="GSZTqbS2n0hg8-wi25U2-12" target="GSZTqbS2n0hg8-wi25U2-1" edge="1">
          <mxGeometry relative="1" as="geometry" />
        </mxCell>
        <mxCell id="GSZTqbS2n0hg8-wi25U2-12" value="Id_categoria" style="ellipse;whiteSpace=wrap;html=1;fontStyle=4" parent="WIyWlLk6GJQsqaUBKTNV-1" vertex="1">
          <mxGeometry x="910" y="650" width="120" height="30" as="geometry" />
        </mxCell>
        <mxCell id="GSZTqbS2n0hg8-wi25U2-14" value="&lt;b&gt;N:1&lt;/b&gt;" style="text;html=1;strokeColor=none;fillColor=none;align=center;verticalAlign=middle;whiteSpace=wrap;rounded=0;" parent="WIyWlLk6GJQsqaUBKTNV-1" vertex="1">
          <mxGeometry x="975" y="355" width="40" height="20" as="geometry" />
        </mxCell>
        <mxCell id="GSZTqbS2n0hg8-wi25U2-15" value="&lt;b&gt;N:N&lt;/b&gt;" style="text;html=1;strokeColor=none;fillColor=none;align=center;verticalAlign=middle;whiteSpace=wrap;rounded=0;" parent="WIyWlLk6GJQsqaUBKTNV-1" vertex="1">
          <mxGeometry x="525" y="360" width="40" height="20" as="geometry" />
        </mxCell>
        <mxCell id="kW68K_AjfZWNpstrsacn-4" value="Telefono_user" style="ellipse;shape=doubleEllipse;margin=3;whiteSpace=wrap;html=1;align=center;shadow=0;sketch=0;fillColor=#ffffff;gradientColor=none;" parent="WIyWlLk6GJQsqaUBKTNV-1" vertex="1">
          <mxGeometry x="110" y="415" width="120" height="30" as="geometry" />
        </mxCell>
        <mxCell id="kW68K_AjfZWNpstrsacn-6" value="&lt;b&gt;N:N&lt;/b&gt;" style="text;html=1;strokeColor=none;fillColor=none;align=center;verticalAlign=middle;whiteSpace=wrap;rounded=0;shadow=0;dashed=1;sketch=0;" parent="WIyWlLk6GJQsqaUBKTNV-1" vertex="1">
          <mxGeometry x="435" y="540" width="40" height="20" as="geometry" />
        </mxCell>
        <mxCell id="kW68K_AjfZWNpstrsacn-9" value="Telefono_proveedor" style="ellipse;shape=doubleEllipse;margin=3;whiteSpace=wrap;html=1;align=center;shadow=0;sketch=0;fillColor=#ffffff;gradientColor=none;" parent="WIyWlLk6GJQsqaUBKTNV-1" vertex="1">
          <mxGeometry x="245" y="780" width="120" height="30" as="geometry" />
        </mxCell>
        <mxCell id="kW68K_AjfZWNpstrsacn-10" value="Telefono_laboratorio" style="ellipse;shape=doubleEllipse;margin=3;whiteSpace=wrap;html=1;align=center;shadow=0;sketch=0;fillColor=#ffffff;gradientColor=none;" parent="WIyWlLk6GJQsqaUBKTNV-1" vertex="1">
          <mxGeometry x="1100" y="495" width="120" height="30" as="geometry" />
        </mxCell>
        <mxCell id="kW68K_AjfZWNpstrsacn-11" value="Fecha_modificacion" style="ellipse;whiteSpace=wrap;html=1;" parent="WIyWlLk6GJQsqaUBKTNV-1" vertex="1">
          <mxGeometry x="430" y="405" width="120" height="30" as="geometry" />
        </mxCell>
        <mxCell id="kW68K_AjfZWNpstrsacn-16" style="edgeStyle=none;rounded=0;orthogonalLoop=1;jettySize=auto;html=1;exitX=1;exitY=0.5;exitDx=0;exitDy=0;entryX=0;entryY=0.5;entryDx=0;entryDy=0;endArrow=none;endFill=0;" parent="WIyWlLk6GJQsqaUBKTNV-1" source="kW68K_AjfZWNpstrsacn-13" target="kW68K_AjfZWNpstrsacn-15" edge="1">
          <mxGeometry relative="1" as="geometry" />
        </mxCell>
        <mxCell id="kW68K_AjfZWNpstrsacn-17" style="edgeStyle=none;rounded=0;orthogonalLoop=1;jettySize=auto;html=1;exitX=1;exitY=0.5;exitDx=0;exitDy=0;entryX=0;entryY=0.5;entryDx=0;entryDy=0;endArrow=none;endFill=0;" parent="WIyWlLk6GJQsqaUBKTNV-1" source="kW68K_AjfZWNpstrsacn-13" target="kW68K_AjfZWNpstrsacn-14" edge="1">
          <mxGeometry relative="1" as="geometry" />
        </mxCell>
        <mxCell id="kW68K_AjfZWNpstrsacn-13" value="Formula" style="ellipse;shape=doubleEllipse;margin=3;whiteSpace=wrap;html=1;align=center;shadow=0;sketch=0;fillColor=#ffffff;gradientColor=none;" parent="WIyWlLk6GJQsqaUBKTNV-1" vertex="1">
          <mxGeometry x="835" y="100" width="120" height="30" as="geometry" />
        </mxCell>
        <mxCell id="kW68K_AjfZWNpstrsacn-14" value="Gramaje" style="ellipse;whiteSpace=wrap;html=1;fontStyle=4" parent="WIyWlLk6GJQsqaUBKTNV-1" vertex="1">
          <mxGeometry x="1015" y="115" width="120" height="30" as="geometry" />
        </mxCell>
        <mxCell id="kW68K_AjfZWNpstrsacn-15" value="Ingrediente" style="ellipse;whiteSpace=wrap;html=1;fontStyle=4" parent="WIyWlLk6GJQsqaUBKTNV-1" vertex="1">
          <mxGeometry x="1015" y="75" width="120" height="30" as="geometry" />
        </mxCell>
        <mxCell id="kW68K_AjfZWNpstrsacn-20" style="edgeStyle=none;rounded=0;orthogonalLoop=1;jettySize=auto;html=1;exitX=1;exitY=0.5;exitDx=0;exitDy=0;entryX=0;entryY=1;entryDx=0;entryDy=0;endArrow=none;endFill=0;" parent="WIyWlLk6GJQsqaUBKTNV-1" source="kW68K_AjfZWNpstrsacn-18" target="ufcxnx_7CU1jS0cniteA-4" edge="1">
          <mxGeometry relative="1" as="geometry" />
        </mxCell>
        <mxCell id="kW68K_AjfZWNpstrsacn-18" value="Hora_modificacion" style="ellipse;whiteSpace=wrap;html=1;" parent="WIyWlLk6GJQsqaUBKTNV-1" vertex="1">
          <mxGeometry x="330" y="360" width="120" height="30" as="geometry" />
        </mxCell>
        <mxCell id="kW68K_AjfZWNpstrsacn-22" style="edgeStyle=none;rounded=0;orthogonalLoop=1;jettySize=auto;html=1;exitX=0.5;exitY=1;exitDx=0;exitDy=0;entryX=0.5;entryY=0;entryDx=0;entryDy=0;endArrow=none;endFill=0;" parent="WIyWlLk6GJQsqaUBKTNV-1" source="kW68K_AjfZWNpstrsacn-21" target="ufcxnx_7CU1jS0cniteA-3" edge="1">
          <mxGeometry relative="1" as="geometry" />
        </mxCell>
        <mxCell id="kW68K_AjfZWNpstrsacn-21" value="Lote" style="ellipse;whiteSpace=wrap;html=1;" parent="WIyWlLk6GJQsqaUBKTNV-1" vertex="1">
          <mxGeometry x="710" y="70" width="85" height="30" as="geometry" />
        </mxCell>
        <mxCell id="vR_VCKndD93YbSy1uv1D-0" value="(0,N)" style="text;html=1;strokeColor=none;fillColor=none;align=center;verticalAlign=middle;whiteSpace=wrap;rounded=0;" vertex="1" parent="WIyWlLk6GJQsqaUBKTNV-1">
          <mxGeometry x="420" y="315" width="40" height="20" as="geometry" />
        </mxCell>
        <mxCell id="vR_VCKndD93YbSy1uv1D-1" value="(0,N)" style="text;html=1;strokeColor=none;fillColor=none;align=center;verticalAlign=middle;whiteSpace=wrap;rounded=0;" vertex="1" parent="WIyWlLk6GJQsqaUBKTNV-1">
          <mxGeometry x="635" y="320" width="40" height="20" as="geometry" />
        </mxCell>
        <mxCell id="vR_VCKndD93YbSy1uv1D-2" value="(1,N)" style="text;html=1;strokeColor=none;fillColor=none;align=center;verticalAlign=middle;whiteSpace=wrap;rounded=0;" vertex="1" parent="WIyWlLk6GJQsqaUBKTNV-1">
          <mxGeometry x="815" y="320" width="40" height="20" as="geometry" />
        </mxCell>
        <mxCell id="vR_VCKndD93YbSy1uv1D-4" value="(1,1)" style="text;html=1;strokeColor=none;fillColor=none;align=center;verticalAlign=middle;whiteSpace=wrap;rounded=0;" vertex="1" parent="WIyWlLk6GJQsqaUBKTNV-1">
          <mxGeometry x="1110" y="320" width="40" height="20" as="geometry" />
        </mxCell>
        <mxCell id="vR_VCKndD93YbSy1uv1D-5" value="(1,N)" style="text;html=1;strokeColor=none;fillColor=none;align=center;verticalAlign=middle;whiteSpace=wrap;rounded=0;" vertex="1" parent="WIyWlLk6GJQsqaUBKTNV-1">
          <mxGeometry x="465" y="695" width="40" height="20" as="geometry" />
        </mxCell>
        <mxCell id="vR_VCKndD93YbSy1uv1D-6" value="(0,N)" style="text;html=1;strokeColor=none;fillColor=none;align=center;verticalAlign=middle;whiteSpace=wrap;rounded=0;" vertex="1" parent="WIyWlLk6GJQsqaUBKTNV-1">
          <mxGeometry x="625" y="365" width="40" height="20" as="geometry" />
        </mxCell>
        <mxCell id="vR_VCKndD93YbSy1uv1D-8" value="(0,N)" style="text;html=1;strokeColor=none;fillColor=none;align=center;verticalAlign=middle;whiteSpace=wrap;rounded=0;" vertex="1" parent="WIyWlLk6GJQsqaUBKTNV-1">
          <mxGeometry x="750" y="380" width="40" height="20" as="geometry" />
        </mxCell>
        <mxCell id="vR_VCKndD93YbSy1uv1D-9" value="(1,1)" style="text;html=1;strokeColor=none;fillColor=none;align=center;verticalAlign=middle;whiteSpace=wrap;rounded=0;" vertex="1" parent="WIyWlLk6GJQsqaUBKTNV-1">
          <mxGeometry x="755" y="630" width="40" height="20" as="geometry" />
        </mxCell>
        <mxCell id="vR_VCKndD93YbSy1uv1D-10" value="&lt;b&gt;N:1&lt;/b&gt;" style="text;html=1;strokeColor=none;fillColor=none;align=center;verticalAlign=middle;whiteSpace=wrap;rounded=0;" vertex="1" parent="WIyWlLk6GJQsqaUBKTNV-1">
          <mxGeometry x="805" y="500" width="40" height="20" as="geometry" />
        </mxCell>
      </root>
    </mxGraphModel>
  </diagram>
</mxfile>
